<svg xmlns="http://www.w3.org/2000/svg" version="1.1" xmlns:xlink="http://www.w3.org/1999/xlink" xmlns:svgjs="http://svgjs.dev/svgjs" width="100%" height="100%" viewBox="0 0 1000 600"><rect width="1000" height="600" x="0" y="0" fill="#191919"/><g><circle r="166.66666666666666" cx="341.1553599039713" cy="363.3775292600467" fill="#b88746" transform="matrix(0.7163792744607302,0,0,0.7163792744607301,0,39.68390493366009)"/><path d="M412.1120571396375 438.37753441219144L391.3883733914186 438.37753441219144L391.3883733914186 339.69332608733987L395.719513645676 308.11437942338733L395.2260926040517 308.0047303030264L385.2754349312959 337.71964192084283L344.3214884764825 425.54858732996075L337.49583073401357 425.54858732996075L301.0923227741795 347.58806275332796L288.0714897313171 308.0047303030264L287.4684195693319 308.11437942338733L292.70416506656704 349.45209779946407L292.70416506656704 438.37753441219144L272.96732340159673 438.37753441219144L272.96732340159673 311.0749056731329L270.19868311248285 290.35122192491406L293.30723522855226 288.377537758417L336.61863777112603 381.14069358377753L342.04626922899286 406.79858774823896L347.4739006868597 381.14069358377753L389.7984611461849 290.35122192491406L412.1120571396375 288.377537758417L412.1120571396375 438.37753441219144Z " fill="#191919" transform="matrix(0.7163792744607302,0,0,0.7163792744607301,0,39.68390493366009)"/><path d="M722.9303491114102 436.8248298107914L703.6871805941763 436.8248298107914L703.6871805941763 345.1906940144399L707.7089009985718 315.86777055960744L707.25073031959 315.765954853167L698.0109549601246 343.35801129851285L659.9827886046387 424.91239215726574L653.6447608787244 424.91239215726574L619.8419463405148 352.521424878148L607.7513312007184 315.765954853167L607.1913448152962 315.86777055960744L612.0530447978249 354.25229188763467L612.0530447978249 436.8248298107914L593.7262176385545 436.8248298107914L593.7262176385545 318.616794633498L591.1553710509347 299.3736261162642L612.613031183247 297.54094340033714L652.8302352272012 383.67703104890757L657.8701126960007 407.50190635595897L662.9099901648 383.67703104890757L702.2108528507907 299.3736261162642L722.9303491114102 297.54094340033714L722.9303491114102 436.8248298107914ZM822.8115571294333 420.3306853674481L824.6442398453604 436.8248298107914L805.4010713281265 436.8248298107914L805.4010713281265 421.98519059710446L796.7976441339135 432.2431230209738Q795.2195006840875 433.4394575716484 793.2086404818898 434.5339764158826Q791.197780279692 435.62849526011684 789.1360122242742 436.49392876486013Q787.0742441688562 437.38481619621354 785.0124761134383 437.86844080180543Q782.9507080580205 438.37751933400733 781.2198410485338 438.37751933400733L781.2198410485338 438.37751933400733Q774.3472808638074 438.37751933400733 768.0601609911133 436.2393894987592Q761.7730411184192 434.07580573690086 757.0640646955511 429.90136177284484Q752.355088272683 425.72691780878887 749.5551563455723 419.5416136425351Q746.7552244184616 413.3563094762814 746.7552244184616 405.31286866749053L746.7552244184616 405.31286866749053Q746.7552244184616 396.7858032531078 750.1915045108248 390.4986833804137Q753.6277846031879 384.2370174343297 758.9985631179185 380.06257347027366Q764.343887706039 375.88812950621764 770.9364546980543 373.82636145079977Q777.5544756166797 371.76459339538184 783.867049415984 371.76459339538184L783.867049415984 371.76459339538184Q789.085104371054 371.76459339538184 793.0813708488392 372.32457978080396Q797.0521834000145 372.8591122396161 799.801207473905 373.5972761113089L799.801207473905 373.5972761113089Q803.0084022267773 374.411801762832 805.4010713281265 375.4299588272359L805.4010713281265 375.4299588272359L805.4010713281265 372.2227640743636Q805.4010713281265 366.8265316330229 804.7647231628741 362.4993641093063Q804.1283749976217 358.1976505121998 802.1429687220341 355.21954109881835Q800.1830163730565 352.24143168543696 796.4667430879823 350.688742162221Q792.750469802908 349.136052639005 786.6160734898746 349.136052639005L786.6160734898746 349.136052639005Q781.6780117275156 349.136052639005 777.0963049376979 349.8233086574777Q772.5145981478804 350.5105646759503 768.9255944958567 351.32509032747345L768.9255944958567 351.32509032747345Q764.7256966051905 352.34324739187736 761.1366929531667 353.43776623611154L761.1366929531667 353.43776623611154L754.5441259611515 341.1689736100445Q758.5658463655469 339.33629089411744 763.7075395407866 337.8599631507318L763.7075395407866 337.8599631507318Q768.1110688443334 336.5872668202269 774.1436494509267 335.5182019026028Q780.2016839841299 334.4745909115888 787.532414847838 334.4745909115888L787.532414847838 334.4745909115888Q798.0703404644185 334.4745909115888 804.9429006491448 337.2999767653096Q811.8154608338712 340.15081654564057 815.7608194584362 345.2925097208803Q819.7061780830014 350.40874896950993 821.2588676062173 357.61221020016757Q822.8115571294333 364.7902175042151 822.8115571294333 373.5972761113089L822.8115571294333 373.5972761113089L822.8115571294333 420.3306853674481ZM805.4010713281265 411.72725817323516L805.4010713281265 387.97874464601404Q802.8302247405067 387.6223896734727 799.9030231803455 387.2405807743212L799.9030231803455 387.2405807743212Q797.433992299166 386.98604150822024 794.2267975462937 386.7060483155091Q791.0196027934213 386.42605512279806 787.532414847838 386.42605512279806L787.532414847838 386.42605512279806Q782.3907216725983 386.42605512279806 778.139915928712 387.44421218720197Q773.8891101848257 388.43691532499577 770.7582772117836 390.6768608666844Q767.6528981653518 392.9422603349831 765.8965772292551 396.50581006039675Q764.1657102197684 400.06935978581043 764.1657102197684 405.21105296105014L764.1657102197684 405.21105296105014Q764.1657102197684 409.33458907188594 765.5402222567136 412.71996131102895Q766.9147342936589 416.1053335501719 769.3074033950081 418.5998183579615Q771.6746185697472 421.068849239141 774.9327211758397 422.392453422866Q778.1908237819322 423.7160576065911 781.9325509936165 423.7160576065911L781.9325509936165 423.7160576065911Q783.6888719297132 423.7160576065911 785.6488242786908 423.20697907438915Q787.6342305542784 422.7233544687973 789.594182903256 421.88337489066413Q791.5541352522334 421.068849239141 793.539541527821 419.97433039490676Q795.4994938767985 418.85435762406246 797.2558148128953 417.75983877982827L797.2558148128953 417.75983877982827Q801.3793509237311 415.1126304123781 805.4010713281265 411.72725817323516L805.4010713281265 411.72725817323516ZM872.2939904594631 360.48850390710857L872.2939904594631 436.8248298107914L854.8835046581563 436.8248298107914L854.8835046581563 308.5370396958993L853.0508219422293 290.210212536629L872.2939904594631 288.37752982070197L872.2939904594631 349.7724008042575L880.4392469746944 339.23447518767705Q884.0282506267182 337.22361498547934 888.9663123890771 335.84910294853404Q893.9298280780462 334.4745909115888 899.7842311983685 334.4745909115888L899.7842311983685 334.4745909115888Q913.5293515678212 334.4745909115888 920.8600824315293 343.63800449122397Q928.1908132952375 352.80141807085914 928.1908132952375 369.9319106794548L928.1908132952375 369.9319106794548L928.1908132952375 436.8248298107914L910.7803274939307 436.8248298107914L910.7803274939307 371.8664091018222Q910.7803274939307 365.7065588621786 909.7367165029167 361.4048452650721Q908.6676515852927 357.1031316679656 906.7586070895353 354.35410759407506Q904.8241086671679 351.6050835201845 901.973268886837 350.3578411162897Q899.147883033116 349.136052639005 895.5588793810924 349.136052639005L895.5588793810924 349.136052639005Q891.9953296556787 349.136052639005 888.6099574165356 350.00148614374837Q885.2245851773927 350.86691964849166 882.195567910791 352.3941552450975Q879.1665506441894 353.8959369150933 876.6466119097898 355.9577049705112Q874.1266731753902 358.01947302592913 872.2939904594631 360.48850390710857L872.2939904594631 360.48850390710857ZM1025.043004046659 416.2071492566123L1035.0463972044274 425.0142078637061Q1032.1955574240965 427.94140942386736 1028.8101851849535 430.4104403050468Q1025.4248129458106 432.8794711862263 1021.3012768349747 434.6612460489331Q1017.1777407241389 436.4684748382501 1012.1633171819497 437.41027012282365Q1007.1743475663706 438.37751933400733 1001.039951253337 438.37751933400733L1001.039951253337 438.37751933400733Q988.8475204071002 438.37751933400733 980.2440932128873 434.07580573690086Q971.6152120920641 429.7740921397944 966.1680717975032 422.51972305591653Q960.7209315029423 415.2908078986488 958.2009927685425 405.94921683274293Q955.681054034143 396.60762576683715 955.681054034143 386.42605512279806L955.681054034143 386.42605512279806Q955.681054034143 379.9098499106131 956.8773885848176 373.54636825808865Q958.0737231354922 367.18288660556425 960.4409383102312 361.4048452650721Q962.8336074115804 355.6268039245799 966.3971571369941 350.688742162221Q969.9861607890178 345.75068039986206 974.746045065106 342.16167674783827Q979.5059293411944 338.5981270224246 985.5130560211775 336.5363589670067Q991.5201827011605 334.4745909115888 998.7490978584282 334.4745909115888L998.7490978584282 334.4745909115888Q1008.6506753097561 334.4745909115888 1015.879590467024 337.6817856644611Q1023.1339595509017 340.8889804173334 1027.8938438269902 346.6670217578256Q1032.6537281030783 352.41960917170763 1034.9445814979872 360.48850390710857Q1037.2354348928957 368.55739864250955 1037.2354348928957 378.35716038739713L1037.2354348928957 378.35716038739713Q1037.2354348928957 381.2080001677281 1037.057257406625 384.5933724068711Q1036.8790799203543 387.97874464601404 1036.497271021203 391.00776191261565L1036.497271021203 391.00776191261565L973.0915398354498 391.00776191261565Q973.0915398354498 397.880322097342 974.975130404597 403.8365409241049Q976.8587209737442 409.79275975086773 980.2440932128873 414.2471969076348Q983.6294654520301 418.6761801377918 988.4402575813386 421.19611887219145Q993.2510497106471 423.7160576065911 999.20726853741 423.7160576065911L999.20726853741 423.7160576065911Q1005.0616716577325 423.7160576065911 1009.414293108059 422.8506241018478Q1013.7669145583858 421.98519059710446 1016.8977475314279 420.73794819320966Q1020.0031265778597 419.51615971592497 1021.9885328534473 418.21800945881006Q1023.9484852024249 416.94531312830514 1025.043004046659 416.2071492566123L1025.043004046659 416.2071492566123ZM986.3784895259207 377.26264154316294L1019.824949091589 377.26264154316294Q1019.9267647980294 376.24448447875903 1019.9522187246395 375.25178134096524Q1020.0031265778597 374.23362427656133 1020.0031265778597 373.2409211387675L1020.0031265778597 373.2409211387675Q1020.0031265778597 367.9974122570874 1018.8067920271851 363.61933688015057Q1017.6359114031208 359.2158075766037 1015.1923344485513 355.9577049705112Q1012.774211420592 352.6996023644187 1009.0070302822975 350.86691964849166Q1005.2653030706132 349.0342369325646 1000.1236098953735 349.0342369325646L1000.1236098953735 349.0342369325646Q993.9892135823399 349.0342369325646 989.6365921320132 351.0196432081523Q985.2839706816866 352.9795955571298 982.3058612683052 356.0595206769516Q979.3277518549237 359.1139918701633 977.5459769922169 362.7793573020174Q975.7387482029 366.4447227338714 974.8224068449364 369.75373319318413L974.8224068449364 369.75373319318413L970.0625225688482 379.73167242434243L986.3784895259207 377.26264154316294ZM1113.1899518974274 340.8889804173334L1107.8955351625268 352.6232405845884Q1106.2410299328706 351.78326100645523 1103.9501765379619 350.9687353549321Q1101.659323143053 350.12875577679887 1099.1902922618735 349.4924076115464Q1096.695807454084 348.85605944629395 1094.1758687196843 348.4997044737526Q1091.6559299852847 348.11789557460116 1089.3650765903758 348.11789557460116L1089.3650765903758 348.11789557460116Q1079.6671305519285 348.11789557460116 1075.619956220923 351.0196432081523Q1071.5982358165274 353.8959369150933 1071.5982358165274 359.6739782555855L1071.5982358165274 359.6739782555855Q1071.5982358165274 363.51752117371024 1074.2454441839777 366.03745990810984Q1076.918106478038 368.55739864250955 1081.118004368704 370.56825884470726Q1085.3433561859802 372.57911904690496 1090.51050328783 374.3863478362219Q1095.7031043162901 376.1681226989287 1100.6411660786491 378.6371535801082L1100.6411660786491 378.6371535801082Q1104.2301697306727 380.36802058959483 1107.8955351625268 382.76068969094405Q1111.5609005943809 385.1533587922932 1114.488102154542 388.3605535451655Q1117.4153037147034 391.56774829803777 1119.2479864306304 395.58946870243324Q1121.0806691465573 399.61118910682865 1121.0806691465573 404.651066575628L1121.0806691465573 404.651066575628Q1121.0806691465573 413.91629586170353 1117.9752901001254 420.3306853674481Q1114.8444571270834 426.7450748731928 1109.499132538963 430.7413413509781Q1104.1283540242325 434.71215390215326 1096.9248927935746 436.5448366180803Q1089.7468854895274 438.37751933400733 1081.5761750476859 438.37751933400733L1081.5761750476859 438.37751933400733Q1078.4707960012538 438.37751933400733 1074.5254373766888 437.7920790219751Q1070.5800787521239 437.18118478333275 1066.6601740541687 436.13757379231873Q1062.7148154296035 435.09396280130477 1059.1258117775797 433.61763505791913Q1055.5622620521663 432.14130731453344 1053.1695929508169 430.5122560114872L1053.1695929508169 430.5122560114872L1059.22762748402 418.39618694508073Q1061.4166651724886 419.51615971592497 1064.44568243909 420.45795500049866Q1067.4746997056918 421.42520421168234 1070.6818944585643 422.16336808337513Q1073.8890892114364 422.90153195506804 1077.0453761110884 423.30879478082954Q1080.2016630107405 423.7160576065911 1082.6961478185303 423.7160576065911L1082.6961478185303 423.7160576065911Q1086.8960457091962 423.7160576065911 1090.7904964805412 422.8506241018478Q1094.6849472518861 421.98519059710446 1097.6630566652675 420.05069217473704Q1100.6411660786491 418.1416476789797 1102.422940941356 415.06172255915794Q1104.2301697306727 411.9817974393361 1104.2301697306727 407.50190635595897L1104.2301697306727 407.50190635595897Q1104.2301697306727 404.11653411681596 1102.8047498405072 401.5456875291961Q1101.3793299503418 398.97484094157625 1098.9612069223826 397.0148885925987Q1096.5176299678133 395.02948231701106 1093.3104352149408 393.4004310139648Q1090.1032404620687 391.7459257843085 1086.5396907366548 390.21869018770263Q1082.9506870846312 388.7169085177069 1079.2089598729467 387.1133111412707Q1075.4417787346524 385.5097137648346 1072.0564064955092 383.5752153424672L1072.0564064955092 383.5752153424672Q1068.8492117426372 381.74253262654014 1065.8711023292558 379.5534949380717Q1062.8929929158744 377.36445724960333 1060.6021395209655 374.6154331757128Q1058.3112861260565 371.8664091018222 1056.9367740891116 368.43012900945905Q1055.5622620521663 364.9938489170959 1055.5622620521663 360.59031961354896L1055.5622620521663 360.59031961354896Q1055.5622620521663 353.6159437223822 1058.0312929333456 348.62697410680306Q1060.500323814525 343.63800449122397 1065.0056688245122 340.5071715181819Q1069.4855599078896 337.40179247175 1075.823587633804 335.9254647283644Q1082.136161433108 334.4745909115888 1089.7468854895274 334.4745909115888L1089.7468854895274 334.4745909115888Q1093.2340734351105 334.4745909115888 1096.6194456742537 335.00912337040086Q1100.0048179133967 335.569109755823 1103.1101969598285 336.43454326056633Q1106.2410299328706 337.2999767653096 1108.8118765204904 338.4963113159842Q1111.3572691815002 339.69264586665884 1113.1899518974274 340.8889804173334L1113.1899518974274 340.8889804173334ZM1165.523225007788 360.48850390710857L1165.523225007788 436.8248298107914L1148.1127392064811 436.8248298107914L1148.1127392064811 308.5370396958993L1146.2800564905542 290.210212536629L1165.523225007788 288.37752982070197L1165.523225007788 349.7724008042575L1173.6684815230192 339.23447518767705Q1177.2574851750428 337.22361498547934 1182.1955469374018 335.84910294853404Q1187.159062626371 334.4745909115888 1193.0134657466933 334.4745909115888L1193.0134657466933 334.4745909115888Q1206.758586116146 334.4745909115888 1214.0893169798542 343.63800449122397Q1221.4200478435623 352.80141807085914 1221.4200478435623 369.9319106794548L1221.4200478435623 369.9319106794548L1221.4200478435623 436.8248298107914L1204.0095620422553 436.8248298107914L1204.0095620422553 371.8664091018222Q1204.0095620422553 365.7065588621786 1202.9659510512415 361.4048452650721Q1201.8968861336175 357.1031316679656 1199.9878416378601 354.35410759407506Q1198.0533432154928 351.6050835201845 1195.2025034351618 350.3578411162897Q1192.3771175814409 349.136052639005 1188.7881139294172 349.136052639005L1188.7881139294172 349.136052639005Q1185.2245642040034 349.136052639005 1181.8391919648607 350.00148614374837Q1178.4538197257175 350.86691964849166 1175.4248024591157 352.3941552450975Q1172.3957851925143 353.8959369150933 1169.8758464581147 355.9577049705112Q1167.355907723715 358.01947302592913 1165.523225007788 360.48850390710857L1165.523225007788 360.48850390710857Z " fill="#b88746" transform="matrix(0.7163792744607302,0,0,0.7163792744607301,0,39.68390493366009)"/></g></svg>